<svg height="72" viewBox="0 0 59 72" width="59" xmlns="http://www.w3.org/2000/svg"><g fill="#fff"><path d="m58.34 20.545a2.997 2.997 0 0 0 -2.396-1.195h-38.67l-2.475-7.385h-11.741a3 3 0 1 0 0 6h7.424l13.5 40.285h25.159a3 3 0 1 0 0-6h-20.842l-1.726-5.149h23.12a3.001 3.001 0 0 0 2.884-2.172l6.25-21.75a3.005 3.005 0 0 0 -.487-2.634zm-7.781 9.681h-4.81v-4.876h6.211zm-17.617 0v-4.876h6.807v4.875h-6.807zm6.807 6v4.875h-6.807v-4.875zm-12.807-10.876v4.875h-6.023l-1.634-4.875zm-4.013 10.876h4.013v4.875h-2.379zm22.82 4.875v-4.875h3.086l-1.401 4.875z"/><circle cx="27.406" cy="66.094" r="5.781"/><circle cx="44.844" cy="66.094" r="5.781"/><path d="m29.335 9.699 7.547 5.492a1.986 1.986 0 0 0 2.818-.494c.646-.936.43-2.232-.48-2.895l-2.373-1.726 9.436-5.09 4.628 12.014h4.347l-6.044-15.691a2.051 2.051 0 0 0 -1.177-1.183 1.97 1.97 0 0 0 -1.643.109l-13.248 7.147-3.022-2.199a1.986 1.986 0 0 0 -2.742.39l-8.481 10.798a2.176 2.176 0 0 0 -.405.628h5.106z"/></g></svg>