<svg height="63" viewBox="0 0 78 63" width="78" xmlns="http://www.w3.org/2000/svg"><g fill="#fff"><circle cx="25.983" cy="55.5" r="7.5"/><circle cx="59.982" cy="55.5" r="7.5"/><path d="m64 0h-52.938c-3.188 0-3 3.125-3 3.125v4.875h-4.593a3.469 3.469 0 1 0 0 6.938l28.085 1.84.196.043c-.761 3.197-8.938 3.805-8.938 3.805l-8.31.428h-9.056a3.375 3.375 0 1 0 0 6.75l23.656 1.254c-.807 3.153-6.29 3.756-6.29 3.756l-14.751.76v15.615c0 3.188 2.564 3.812 2.564 3.812h2.099c1.173-6.261 6.659-11 13.259-11s12.085 4.739 13.259 11h7.404c1.174-6.261 6.66-11 13.26-11 6.601 0 12.086 4.739 13.26 11h1.709c2.937-.001 3.125-4.063 3.125-4.063v-15.25c0-18.876-14-33.688-14-33.688zm-12 23.938v-15h10.062l5.75 15z"/></g></svg>